<?xml version="1.0" standalone="no"?><!DOCTYPE svg PUBLIC "-//W3C//DTD SVG 1.1//EN" "http://www.w3.org/Graphics/SVG/1.1/DTD/svg11.dtd"><svg t="1490596238480" class="icon" style="" viewBox="0 0 1095 1024" version="1.1" xmlns="http://www.w3.org/2000/svg" p-id="5229" xmlns:xlink="http://www.w3.org/1999/xlink" width="51.328125" height="48"><defs><style type="text/css"></style></defs><path d="M105.71156 547.177688C90.703853 547.177688 76.391339 546.430826 62.186862 547.356183 42.214165 548.662018 25.524844 544.359339 14.401761 526.049468 2.484844 506.424367-0.455633 485.845725 9.258275 464.98055 13.58444 455.694092 20.221651 446.684771 27.873468 439.869064 117.651963 359.912514 207.815633 280.392807 297.885358 200.769761 364.558092 141.828697 431.24022 82.897028 497.917651 23.960661 529.276477-3.757798 566.107596-3.541725 597.442936 24.181431 753.959927 162.651596 910.52389 301.070092 1067.116037 439.451009 1096.455046 465.379817 1099.635083 506.274055 1074.331009 534.142826 1066.453725 542.818642 1056.951193 547.309211 1045.142312 547.215266 1026.841835 547.069651 1008.541358 547.177688 989.151119 547.177688L989.151119 556.431266C989.151119 676.662018 989.090055 796.892771 989.184 917.123523 989.216881 957.609101 972.433615 988.601541 937.702165 1009.518385 920.745101 1019.730202 901.984294 1023.102826 882.36389 1023.098128 659.047339 1023.041761 435.726092 1023.074642 212.409541 1022.999486 205.156991 1022.994789 197.777615 1022.73644 190.675376 1021.425908 139.423706 1011.98444 105.767927 970.822459 105.730349 917.569761 105.650495 797.339009 105.706862 677.108257 105.706862 556.877505 105.71156 553.890055 105.71156 550.907303 105.71156 547.177688L105.71156 547.177688ZM87.326532 477.677211C87.547303 478.198606 87.763376 478.72 87.984147 479.236697 90.229431 479.236697 92.470018 479.232 94.715303 479.236697 110.21622 479.274275 125.721835 479.034716 141.213358 479.429284 155.849982 479.805064 168.039339 489.129101 172.003817 503.018862 173.459963 508.110679 173.802862 513.662826 173.80756 519.003596 173.901505 651.696147 173.873321 784.393394 173.887413 917.085945 173.887413 941.596183 187.133651 954.922275 211.775413 954.926972 435.594569 954.959853 659.413725 954.955156 883.232881 954.894092 887.652991 954.894092 892.237505 954.687413 896.465028 953.541284 912.139743 949.290275 921.210128 936.283596 921.210128 918.537394 921.228917 784.43567 921.210128 650.333945 921.233615 516.23222 921.238312 493.276771 935.020037 479.424587 958.013064 479.260183 972.809394 479.152147 987.605725 479.255486 1002.402055 479.208514 1004.036697 479.203817 1005.666642 478.851523 1008.663486 478.503927 854.236771 341.973725 700.946789 206.448734 547.511193 70.801615 393.54011 206.93255 240.433321 342.302532 87.326532 477.677211L87.326532 477.677211Z" p-id="5230"></path></svg>