<?xml version="1.0" standalone="no"?><!DOCTYPE svg PUBLIC "-//W3C//DTD SVG 1.1//EN" "http://www.w3.org/Graphics/SVG/1.1/DTD/svg11.dtd"><svg t="1490596255632" class="icon" style="" viewBox="0 0 1024 1024" version="1.1" xmlns="http://www.w3.org/2000/svg" p-id="5358" xmlns:xlink="http://www.w3.org/1999/xlink" width="48" height="48"><defs><style type="text/css"></style></defs><path d="M515.625574 259.256672c-137.762597 0-275.519054 0.00614-413.282674-0.040932-4.520967 0-9.202593 0-13.539364-1.081635-13.969153-3.474125-23.604604-17.358343-22.168905-31.171953 1.592264-15.316847 13.377682-26.627451 28.720112-27.54638 1.444908-0.088004 2.895957-0.051165 4.343935-0.051165 277.174764 0 554.352597-0.004093 831.52736 0.004093 18.754133 0 31.452339 10.5728 33.064047 27.442002 1.569752 16.460904-10.762111 31.05325-27.324322 32.242332-3.091408 0.222057-6.203282 0.207731-9.302877 0.207731L515.621481 259.260765 515.625574 259.256672zM515.625574 259.256672" p-id="5359"></path><path d="M515.403516 528.617469c-137.76362 0-275.519054 0.007163-413.282674-0.048095-4.51892 0-9.199523-0.025583-13.525038-1.136893-13.984503-3.588735-23.468504-17.457604-21.949918-31.31624 1.647523-15.025205 13.187347-26.183336 28.304649-27.293623 2.263553-0.166799 4.547573-0.096191 6.822382-0.096191 275.933493-0.007163 551.866986-0.01535 827.800479 0.070608 4.895497 0 10.018168 0.363274 14.650675 1.808182 13.588483 4.235464 21.680788 17.705244 19.891026 31.971156-1.785669 14.20656-13.028735 24.87555-27.379581 25.864064-3.088338 0.211824-6.199189 0.173962-9.299807 0.173962-137.344065 0.004093-274.689153 0.004093-412.037311 0.004093l0 0L515.403516 528.618493zM515.403516 528.617469" p-id="5360"></path><path d="M350.790388 797.97315c-83.766822 0-167.534667 0.011256-251.302513-0.014326-16.242939-0.004093-27.961842-8.051373-31.723515-21.580504-5.200442-18.705014 7.720845-36.782741 27.344788-38.19695 2.470261-0.173962 4.958942-0.107447 7.444553-0.107447 165.67225-0.004093 331.34757-0.019443 497.019821 0.066515 5.111414 0.007163 10.45205 0.295735 15.288195 1.762133 13.747095 4.16281 21.787212 17.690918 20.046568 32.512485-1.592264 13.488199-13.210883 24.346501-27.231201 25.371854-2.676969 0.196475-5.373381 0.178055-8.058536 0.178055C516.670369 797.97315 433.728332 797.97315 350.790388 797.97315L350.790388 797.97315 350.790388 797.97315zM350.790388 797.97315" p-id="5361"></path></svg>