<?xml version="1.0" standalone="no"?><!DOCTYPE svg PUBLIC "-//W3C//DTD SVG 1.1//EN" "http://www.w3.org/Graphics/SVG/1.1/DTD/svg11.dtd"><svg t="1490777501327" class="icon" style="" viewBox="0 0 1024 1024" version="1.1" xmlns="http://www.w3.org/2000/svg" p-id="1845" xmlns:xlink="http://www.w3.org/1999/xlink" width="48" height="48"><defs><style type="text/css"></style></defs><path d="M514.945075 278.849916c-12.81998 0-23.224957 10.381441-23.224957 23.224957l0 341.169263-88.76465-88.741114c-9.080819-9.080819-23.781636-9.080819-32.839943 0-9.080819 9.057283-9.080819 23.759123 0 32.839943l128.408555 128.385019c4.529153 4.551666 10.474562 6.804986 16.419971 6.804986 5.945409 0 11.890818-2.25332 16.419971-6.804986l128.408555-128.385019c9.080819-9.080819 9.080819-23.781636 0-32.839943-9.080819-9.080819-23.781636-9.080819-32.839943 0l-88.76465 88.741114L538.167986 302.074873C538.169009 289.231357 527.765055 278.849916 514.945075 278.849916zM810.129005 759.134587c-4.319375 4.761444-8.755408 9.428743-13.284561 13.957897-9.080819 9.080819-9.080819 23.759123 0 32.839943 4.529153 4.529153 10.474562 6.804986 16.419971 6.804986 5.945409 0 11.867282-2.275833 16.419971-6.804986 5.063319-5.085832 10.009981-10.264784 14.84101-15.58393 8.616238-9.499351 7.919367-24.176632-1.578961-32.79287C833.423547 748.915851 818.745243 749.635235 810.129005 759.134587zM925.856749 344.715019C874.693486 218.745003 772.737396 123.895775 646.11758 84.506672 503.425717 40.148395 343.128895 71.593572 227.91178 166.67509 113.832582 260.827447 52.264341 410.834926 67.220984 558.125527c14.700817 144.967696 103.651708 278.346449 232.106312 348.159468 65.865103 35.765575 139.719158 53.67241 213.573213 53.67241s147.684574-17.905812 213.549677-53.67241c11.263531-6.108115 15.467273-20.228717 9.336646-31.492248-6.154163-11.241019-20.205181-15.421224-31.515784-9.336646-118.027114 64.123436-264.713964 64.145949-382.764614 0-115.171066-62.566988-194.900945-182.103478-208.068849-311.998897-13.423731-132.078131 41.780569-266.571265 144.06207-350.946954 103.233176-85.234243 246.854201-113.405863 374.821711-73.621764 113.289206 35.208896 204.585515 120.256898 250.500241 233.313813 45.89119 112.917746 39.760562 237.424434-16.814967 341.564259-6.131651 11.263531-1.950422 25.361621 9.31311 31.492248 11.310603 6.108115 25.361621 1.904373 31.492248-9.31311C970.053344 609.522104 976.9975 470.591915 925.856749 344.715019z" p-id="1846"></path></svg>